<?xml version="1.0" encoding="UTF-8" standalone="no"?>
<!-- Created with Inkscape (http://www.inkscape.org/) -->

<svg
   width="406.27368mm"
   height="445.2417mm"
   viewBox="0 0 406.27368 445.2417"
   version="1.1"
   id="svg5"
   inkscape:version="1.1.1 (3bf5ae0d25, 2021-09-20)"
   sodipodi:docname="drawing_port1.svg"
   inkscape:export-filename="C:\Users\danie\OneDrive\Desktop\bitmap1.png"
   inkscape:export-xdpi="96"
   inkscape:export-ydpi="96"
   xmlns:inkscape="http://www.inkscape.org/namespaces/inkscape"
   xmlns:sodipodi="http://sodipodi.sourceforge.net/DTD/sodipodi-0.dtd"
   xmlns="http://www.w3.org/2000/svg"
   xmlns:svg="http://www.w3.org/2000/svg">
  <sodipodi:namedview
     id="namedview7"
     pagecolor="#ffffff"
     bordercolor="#666666"
     borderopacity="1.0"
     inkscape:pageshadow="2"
     inkscape:pageopacity="0.0"
     inkscape:pagecheckerboard="0"
     inkscape:document-units="mm"
     showgrid="false"
     showborder="true"
     objecttolerance="1"
     inkscape:zoom="0.3750491"
     inkscape:cx="717.23942"
     inkscape:cy="837.22371"
     inkscape:window-width="1920"
     inkscape:window-height="1046"
     inkscape:window-x="-11"
     inkscape:window-y="-11"
     inkscape:window-maximized="1"
     inkscape:current-layer="layer1"
     fit-margin-top="5"
     fit-margin-left="5"
     fit-margin-right="5"
     fit-margin-bottom="5"
     lock-margins="true" />
  <defs
     id="defs2" />
  <g
     inkscape:label="Layer 1"
     inkscape:groupmode="layer"
     id="layer1"
     transform="translate(100.64463,-26.626503)">
    <g
       id="g57875">
      <path
         id="path869"
         style="fill:#a25b5b;fill-opacity:1;stroke:#000000;stroke-width:0.999999px;stroke-linecap:butt;stroke-linejoin:miter;stroke-opacity:1"
         d="m 597.21875,127.64844 c -64.55404,0.51966 -131.8052,33.12114 -197.27148,97.65625 -60.38853,70.70175 -102.56631,162.44099 -84.6543,273.29687 l 19.33008,22.66406 -0.66602,5.99805 -16.66601,-5.99805 c -12.1943,-0.54863 -24.22709,-0.82878 -25.9961,15.99805 l -2.66601,37.99414 c 10.97693,29.67001 21.45291,59.50639 47.99414,83.98828 l 5.99804,17.33203 c 7.9427,48.55061 21.57259,85.7274 34.66211,123.98438 l 0.66797,59.99219 c 0.0477,29.62987 -19.19734,41.45132 -41.99609,49.99219 l -10.66406,-3.33204 -59.32618,20.66407 c -76.45552,41.8377 -164.59375,58.36413 -251.300778,77.99019 l -0.01758,64.3184 -153.535152,-1.0059 -0.79297,140.6602 c 31.33147,-0.3228 62.317463,0.5275 71.16406,76.6562 8.449878,109.9793 27.694079,126.2762 12.40039,416.6114 -13.608472,83.4675 39.452659,77.8983 31.806641,3.334 -1.148918,-141.1314 -0.01144,-281.9084 10.244141,-421.2774 70.806526,-178.1968 104.313409,11.0735 125.076178,95.9863 l 4.31445,42.6622 c -17.886697,74.5954 38.12229,51.6473 28.0332,-8 l 8.62696,-42.6602 c 43.87276,-65.398 59.13056,-12.1753 79.78906,18.6641 9.02463,24.425 14.63043,50.2582 10.7832,79.9882 -12.75931,101.9868 47.62214,92.655 38.81641,4 -4.32447,-19.9725 -5.73868,-46.2409 -4.3125,-78.6562 28.10917,-106.7029 68.23235,-129.5882 116.45117,-95.9883 31.43425,76.4002 68.63835,35.0832 105.66797,-2.666 36.34118,-11.1596 64.17493,1.727 90.57422,18.6641 33.04501,72.7082 42.17425,131.0103 38.8164,215.9726 -13.36758,150.0049 56.66058,86.0753 38.81641,-2.666 -6.48389,-58.0318 -6.23766,-112.4974 17.25195,-154.6465 38.07976,-121.9272 105.27675,-96.8758 134.78125,-99.9883 94.41321,-10.3311 91.45326,76.9471 91.11133,149.3145 0.73387,35.1809 0.67004,66.4089 2.69727,107.9863 -12.10965,120.8972 51.90613,54.2366 28.0332,5.9981 -1.42485,-40.6024 -7.73186,-79.4794 0,-123.3164 38.56641,-103.7486 364.36508,-197.3202 77.27188,-181.3091 l -138.64883,-158.646 -91.98829,-69.3242 -9.33203,5.332 -49.32617,-39.99415 c -0.37274,-34.51884 -5.77313,-79.09129 5.33203,-90.6543 48.17091,-74.98983 97.94774,-147.69808 113.31836,-269.29883 6.39084,-14.71105 19.05735,-21.6164 21.92578,-33.56836 11.32044,-47.16888 2.87514,-78.16668 -21.92578,-79.75 13.54095,-25.94226 11.4239,-63.06887 13.33203,-97.32031 C 858.49839,361.94023 848.92493,333.93 835.89062,306.62695 769.08117,186.47009 685.68169,126.93631 597.21875,127.64844 Z"
         transform="scale(0.26458333)"
         sodipodi:nodetypes="sccccccccccccccccccccccccccccccccccccccccccccccccscccs" />
      <path
         style="fill:#ffffff;fill-opacity:1;stroke:none;stroke-width:0.264583px;stroke-linecap:butt;stroke-linejoin:miter;stroke-opacity:1"
         d="m 104.23218,143.03266 c 11.30202,1.2932 19.18107,3.03555 28.21853,0.70546 l 2.29276,1.23456 2.29275,-1.94002 c -13.22515,-7.69956 -21.06268,-7.69261 -32.80404,0 z"
         id="path2405"
         sodipodi:nodetypes="ccccc" />
      <path
         style="fill:#000000;stroke:none;stroke-width:12.3402"
         id="path2747"
         sodipodi:type="arc"
         sodipodi:cx="120.28146"
         sodipodi:cy="141.26898"
         sodipodi:rx="4.9382415"
         sodipodi:ry="3.8800468"
         sodipodi:start="1.9853295"
         sodipodi:end="1.9803902"
         sodipodi:open="true"
         sodipodi:arc-type="arc"
         d="m 118.29252,144.82041 a 4.9382415,3.8800468 0 0 1 -2.5335,-5.10978 4.9382415,3.8800468 0 0 1 6.50021,-1.99692 4.9382415,3.8800468 0 0 1 2.54956,5.10484 4.9382415,3.8800468 0 0 1 -6.49392,2.00953" />
      <path
         style="fill:none;stroke:#000000;stroke-width:0.264583px;stroke-linecap:butt;stroke-linejoin:miter;stroke-opacity:1"
         d="m 100.17577,140.91627 c 14.14897,-8.07625 23.33359,-6.6375 31.92221,-4.05642"
         id="path2884"
         sodipodi:nodetypes="cc" />
      <path
         style="fill:#cc9c75;fill-opacity:1;stroke:none;stroke-width:0.264583px;stroke-linecap:butt;stroke-linejoin:miter;stroke-opacity:1"
         d="m 107.93586,117.45962 c -12.731338,8.06484 9.97557,8.61985 16.04929,8.81829 l 9.70012,0.88183 4.23278,1.76365 c 2.24763,-0.65696 3.2452,2.581 2.82186,-5.6437 -12.71757,-5.11606 -18.87419,-5.26287 -32.80405,-5.82007 z"
         id="path3085"
         sodipodi:nodetypes="cccccc" />
      <path
         style="fill:#f9f9f9;fill-opacity:1;stroke:none;stroke-width:0.264583px;stroke-linecap:butt;stroke-linejoin:miter;stroke-opacity:1"
         d="m 210.78031,142.90151 c -11.30001,0.64645 -19.17495,1.93796 -28.2216,-0.90925 l -2.28922,1.10336 -2.29942,-2.07121 c 13.20293,-6.94275 21.04196,-6.48734 32.81024,1.8771 z"
         id="path3763"
         sodipodi:nodetypes="ccccc" />
      <path
         style="fill:#000000;stroke:none;stroke-width:12.3402"
         id="path3765"
         sodipodi:type="arc"
         sodipodi:cx="-194.62553"
         sodipodi:cy="129.10362"
         sodipodi:rx="4.9472508"
         sodipodi:ry="3.8800468"
         sodipodi:start="1.9853295"
         sodipodi:end="1.9803902"
         sodipodi:open="true"
         sodipodi:arc-type="arc"
         d="m -196.6181,132.65505 a 4.9472508,3.8800468 0 0 1 -2.53813,-5.10978 4.9472508,3.8800468 0 0 1 6.51207,-1.99692 4.9472508,3.8800468 0 0 1 2.55422,5.10484 4.9472508,3.8800468 0 0 1 -6.50577,2.00953"
         transform="matrix(-0.99836747,-0.05711736,0.0032109,0.99999485,0,0)" />
      <path
         style="fill:none;stroke:#000000;stroke-width:0.264583px;stroke-linecap:butt;stroke-linejoin:miter;stroke-opacity:1"
         d="m 214.83069,141.01725 c -14.17758,-8.88584 -23.35931,-7.97266 -31.94126,-5.88304"
         id="path3767"
         sodipodi:nodetypes="cc" />
      <path
         style="fill:#cc9c75;fill-opacity:1;stroke:none;stroke-width:0.264583px;stroke-linecap:butt;stroke-linejoin:miter;stroke-opacity:1"
         d="m 206.99382,117.11667 c 12.75963,8.79331 -9.94979,8.04898 -16.02401,7.89988 l -9.69913,0.32677 -4.22791,1.52143 c -2.25016,-0.78556 -3.23753,2.39529 -2.84051,-5.80514 12.70354,-4.38832 18.86085,-4.18283 32.79156,-3.94294 z"
         id="path3769"
         sodipodi:nodetypes="cccccc" />
      <path
         style="fill:none;stroke:#1a1a1a;stroke-width:0.264583px;stroke-linecap:butt;stroke-linejoin:miter;stroke-opacity:1"
         d="m 133.68527,161.9038 c -2.56263,4.81146 -7.93883,8.95572 -2.46912,12.8747 4.24025,-0.50668 8.55496,-0.78998 14.63836,4.23278 6.61065,4.59143 12.37761,4.75356 17.10748,-0.5291 5.64371,-5.23713 12.16924,-2.23372 17.81295,-3.70368 8.52843,-3.72584 0.40061,-9.75929 -4.05642,-13.9329"
         id="path3804"
         sodipodi:nodetypes="cccccc" />
      <path
         style="fill:#ffffff;fill-opacity:1;stroke:#000000;stroke-width:0.264583px;stroke-linecap:butt;stroke-linejoin:miter;stroke-opacity:1"
         d="m 126.10155,200.35154 58.55344,1.0582 c -19.59933,22.6518 -61.64245,6.03056 -58.55344,-1.0582 z"
         id="path4892"
         sodipodi:nodetypes="ccc" />
      <path
         style="fill:none;stroke:#000000;stroke-width:0.264583px;stroke-linecap:butt;stroke-linejoin:miter;stroke-opacity:1"
         d="m 100.88123,216.0481 c 21.93873,46.6704 67.97106,53.9068 91.88658,19.5766"
         id="path5896"
         sodipodi:nodetypes="cc" />
      <path
         style="fill:#cc9c75;fill-opacity:1;stroke:none;stroke-width:0.264583px;stroke-linecap:butt;stroke-linejoin:miter;stroke-opacity:1"
         d="m 88.711994,137.03622 -1.234559,-26.2785 c 2.539415,-6.36109 7.419108,-11.162003 4.761875,-20.98753 3.109782,-8.936726 10.61302,-17.245816 16.75475,-25.749406 44.16076,-24.920427 65.64737,-14.141118 88.35926,-5.290974 16.19409,14.652718 29.92632,31.298365 26.63124,61.72803 l -1.23456,12.69834 2.11639,-1.94003 c 2.85236,-5.90348 3.78355,-15.49798 3.26276,-27.77761 0.2994,-13.943609 -8.784,-25.955985 -16.66656,-38.535929 C 190.69452,34.256577 140.55586,6.6508687 97.70665,69.488123 72.561762,110.68698 82.957167,110.52325 82.010093,120.81057 l 1.058196,11.11104 c 2.186043,2.7717 4.375425,5.55508 5.643705,5.11461 z"
         id="path6311"
         sodipodi:nodetypes="cccccccccccccc" />
      <path
         style="fill:none;stroke:#000000;stroke-width:0.264583px;stroke-linecap:butt;stroke-linejoin:miter;stroke-opacity:1"
         d="m 83.950118,241.97387 c -5.877007,17.14534 1.553622,30.81913 17.283852,42.3278"
         id="path12358"
         sodipodi:nodetypes="cc" />
      <path
         style="fill:none;stroke:#000000;stroke-width:0.264583px;stroke-linecap:butt;stroke-linejoin:miter;stroke-opacity:1"
         d="m 72.309977,245.14846 c 3.441053,24.83087 10.465925,30.82282 18.34204,38.80046"
         id="path12450"
         sodipodi:nodetypes="cc" />
      <path
         style="fill:none;stroke:#000000;stroke-width:0.264583px;stroke-linecap:butt;stroke-linejoin:miter;stroke-opacity:1"
         d="m 203.87886,266.31236 c 4.18605,3.36014 6.88022,7.76459 1.76365,17.63656"
         id="path12542"
         sodipodi:nodetypes="cc" />
      <path
         style="fill:none;stroke:#000000;stroke-width:0.264583px;stroke-linecap:butt;stroke-linejoin:miter;stroke-opacity:1"
         d="m 215.16627,273.01425 c 1.77132,3.47876 3.84582,6.89688 1.05819,11.28742"
         id="path12634"
         sodipodi:nodetypes="cc" />
      <path
         style="fill:#a25b5b;fill-opacity:1;stroke:#008080;stroke-width:3.54;stroke-miterlimit:4;stroke-dasharray:none"
         id="path17785"
         sodipodi:type="arc"
         sodipodi:cx="-272.79617"
         sodipodi:cy="-36.039352"
         sodipodi:rx="48.945324"
         sodipodi:ry="48.945324"
         sodipodi:start="1.9853295"
         sodipodi:end="1.9839014"
         sodipodi:open="true"
         sodipodi:arc-type="arc"
         transform="rotate(-88.129429)"
         d="m -292.50952,8.7605199 a 48.945324,48.945324 0 0 1 -25.09356,-64.4972269 48.945324,48.945324 0 0 1 64.48826,-25.116583 48.945324,48.945324 0 0 1 25.13961,64.479292 48.945324,48.945324 0 0 1 -64.47031,25.1626249" />
      <path
         style="fill:#1a1a1a;stroke:none;stroke-width:0.406504px;stroke-linecap:butt;stroke-linejoin:miter;stroke-opacity:1"
         d="m -48.989225,295.86146 c 0.660754,-23.46127 9.861869,-35.36794 22.761301,-42.271 9.689892,3.55446 29.2132895,15.95906 45.522602,25.47099 l 11.651617,4.87741 -4.06452,10.83872 c 17.456669,7.45576 33.833008,15.12761 47.690345,23.30323 16.519768,10.89718 35.40806,19.15016 52.83873,22.76131 7.7522,3.4829 13.24353,5.80663 21.9484,14.90323 11.88964,8.88053 11.76508,12.70246 -3.79355,10.02581 -9.03226,-0.58271 -18.06453,-4.54703 -27.09679,-8.67097 -13.51942,-6.6205 -30.241031,-16.38596 -46.606468,-22.21937 l -53.1097,-22.21935 -4.877423,10.29677 -15.7161341,-8.12904 C -17.55159,308.51332 -27.510839,309.38685 -48.989225,295.86146 Z"
         id="path18002"
         sodipodi:nodetypes="ccccccccccccccc" />
      <path
         style="fill:#a25b5b;fill-opacity:1;stroke:#999999;stroke-width:0.406504px;stroke-linecap:butt;stroke-linejoin:miter;stroke-opacity:1"
         d="m -48.718257,295.59048 7.858068,5.14839 c 10.539595,-20.66513 35.4176893,-16.21276 20.59356,-43.62582 l -5.961295,-3.52259 c -19.15427,9.96472 -21.851298,25.62618 -22.490333,42.00002 z"
         id="path19267"
         sodipodi:nodetypes="ccccc" />
      <path
         style="fill:#999999;stroke:none;stroke-width:0.406504px;stroke-linecap:butt;stroke-linejoin:miter;stroke-opacity:1"
         d="M 0.32692566,315.91308 13.875319,322.14534 31.217263,284.4808 17.397901,279.06145 Z"
         id="path19739" />
      <path
         style="fill:#cc9c75;fill-opacity:1;stroke:none;stroke-width:0.406504px;stroke-linecap:butt;stroke-linejoin:miter;stroke-opacity:1"
         d="m 37.991352,300.46779 -7.5871,16.80001 -11.922585,-5.41935 7.858067,-17.07098 z"
         id="path19741" />
    </g>
  </g>
</svg>
